<?xml version="1.0" encoding="UTF-8" standalone="no"?>
<!-- Created with Inkscape (http://www.inkscape.org/) -->

<svg
   width="1280"
   height="640"
   viewBox="0 0 338.66663 169.33331"
   version="1.1"
   id="svg1"
   xml:space="preserve"
   inkscape:version="1.4.3 (0d15f75, 2025-12-25)"
   sodipodi:docname="logo.svg"
   inkscape:export-filename="hero-logo.png"
   inkscape:export-xdpi="96"
   inkscape:export-ydpi="96"
   xmlns:inkscape="http://www.inkscape.org/namespaces/inkscape"
   xmlns:sodipodi="http://sodipodi.sourceforge.net/DTD/sodipodi-0.dtd"
   xmlns:xlink="http://www.w3.org/1999/xlink"
   xmlns="http://www.w3.org/2000/svg"
   xmlns:svg="http://www.w3.org/2000/svg"><sodipodi:namedview
     id="namedview1"
     pagecolor="#505050"
     bordercolor="#ffffff"
     borderopacity="1"
     inkscape:showpageshadow="0"
     inkscape:pageopacity="0"
     inkscape:pagecheckerboard="1"
     inkscape:deskcolor="#505050"
     inkscape:document-units="px"
     inkscape:zoom="0.70710678"
     inkscape:cx="1002.6774"
     inkscape:cy="-82.024386"
     inkscape:window-width="3840"
     inkscape:window-height="2050"
     inkscape:window-x="3828"
     inkscape:window-y="-12"
     inkscape:window-maximized="1"
     inkscape:current-layer="layer1"><inkscape:page
       x="0"
       y="0"
       width="338.66663"
       height="169.33331"
       id="page44"
       margin="10.583332"
       bleed="0" /><inkscape:page
       x="348.66663"
       y="0"
       width="338.66663"
       height="84.666656"
       id="page45"
       margin="5.291666"
       bleed="0"
       inkscape:export-filename="read-me-banner.svg"
       inkscape:export-xdpi="96"
       inkscape:export-ydpi="96" /></sodipodi:namedview><defs
     id="defs1"><linearGradient
       id="linearGradient227"
       inkscape:label="main_bg"><stop
         style="stop-color:#ffffff;stop-opacity:1;"
         offset="0.30000001"
         id="stop226" /><stop
         style="stop-color:#f43f5e;stop-opacity:1"
         offset="0.69999999"
         id="stop227" /></linearGradient><inkscape:path-effect
       effect="bspline"
       id="path-effect144"
       is_visible="true"
       lpeversion="1.3"
       weight="33.333333"
       steps="2"
       helper_size="0"
       apply_no_weight="true"
       apply_with_weight="true"
       only_selected="false"
       uniform="false" /><inkscape:path-effect
       effect="bspline"
       id="path-effect142"
       is_visible="true"
       lpeversion="1.3"
       weight="33.333333"
       steps="2"
       helper_size="0"
       apply_no_weight="true"
       apply_with_weight="true"
       only_selected="false"
       uniform="false" /><inkscape:path-effect
       effect="bspline"
       id="path-effect140"
       is_visible="true"
       lpeversion="1.3"
       weight="33.333333"
       steps="2"
       helper_size="0"
       apply_no_weight="true"
       apply_with_weight="true"
       only_selected="false"
       uniform="false" /><inkscape:path-effect
       effect="bspline"
       id="path-effect138"
       is_visible="true"
       lpeversion="1.3"
       weight="33.333333"
       steps="2"
       helper_size="0"
       apply_no_weight="true"
       apply_with_weight="true"
       only_selected="false"
       uniform="false" /><inkscape:path-effect
       effect="bspline"
       id="path-effect136"
       is_visible="true"
       lpeversion="1.3"
       weight="33.333333"
       steps="2"
       helper_size="0"
       apply_no_weight="true"
       apply_with_weight="true"
       only_selected="false"
       uniform="false" /><inkscape:path-effect
       effect="bspline"
       id="path-effect134"
       is_visible="true"
       lpeversion="1.3"
       weight="33.333333"
       steps="2"
       helper_size="0"
       apply_no_weight="true"
       apply_with_weight="true"
       only_selected="false"
       uniform="false" /><inkscape:path-effect
       effect="bspline"
       id="path-effect83"
       is_visible="true"
       lpeversion="1.3"
       weight="33.333333"
       steps="2"
       helper_size="0"
       apply_no_weight="true"
       apply_with_weight="true"
       only_selected="false"
       uniform="false" /><inkscape:path-effect
       effect="bspline"
       id="path-effect81"
       is_visible="true"
       lpeversion="1.3"
       weight="33.333333"
       steps="2"
       helper_size="0"
       apply_no_weight="true"
       apply_with_weight="true"
       only_selected="false"
       uniform="false" /><inkscape:path-effect
       effect="bspline"
       id="path-effect61"
       is_visible="true"
       lpeversion="1.3"
       weight="33.333333"
       steps="2"
       helper_size="0"
       apply_no_weight="true"
       apply_with_weight="true"
       only_selected="false"
       uniform="false" /><inkscape:path-effect
       effect="bspline"
       id="path-effect60"
       is_visible="true"
       lpeversion="1.3"
       weight="33.333333"
       steps="2"
       helper_size="0"
       apply_no_weight="true"
       apply_with_weight="true"
       only_selected="false"
       uniform="false" /><inkscape:path-effect
       effect="bspline"
       id="path-effect59"
       is_visible="true"
       lpeversion="1.3"
       weight="33.333333"
       steps="2"
       helper_size="0"
       apply_no_weight="true"
       apply_with_weight="true"
       only_selected="false"
       uniform="false" /><inkscape:path-effect
       effect="bspline"
       id="path-effect57"
       is_visible="true"
       lpeversion="1.3"
       weight="33.333333"
       steps="2"
       helper_size="0"
       apply_no_weight="true"
       apply_with_weight="true"
       only_selected="false"
       uniform="false" /><clipPath
       clipPathUnits="userSpaceOnUse"
       id="clipPath24"><rect
         style="fill:none;stroke:#000000;stroke-width:0.999999;stroke-linecap:butt;stroke-linejoin:bevel;paint-order:stroke markers fill;stop-color:#000000"
         id="rect24"
         width="44.999748"
         height="77.937294"
         x="251.53429"
         y="222.73541" /></clipPath><linearGradient
       id="linearGradient60"
       inkscape:label="main_bg"><stop
         style="stop-color:#0ea5e9;stop-opacity:1"
         offset="0.30000001"
         id="stop14" /><stop
         style="stop-color:#f43f5e;stop-opacity:1"
         offset="0.69999999"
         id="stop15" /></linearGradient><linearGradient
       id="linearGradient7"
       inkscape:collect="always"
       inkscape:label="main_bg"><stop
         style="stop-color:#ffffff;stop-opacity:1;"
         offset="0.44999999"
         id="stop6" /><stop
         style="stop-color:#f43f5e;stop-opacity:1"
         offset="0.55000001"
         id="stop7" /></linearGradient><linearGradient
       id="linearGradient28"
       inkscape:collect="always"
       inkscape:label="main_bg"><stop
         style="stop-color:#f43f5e;stop-opacity:1"
         offset="0.40000001"
         id="stop28" /><stop
         style="stop-color:#ffffff;stop-opacity:1;"
         offset="0.60000002"
         id="stop29" /></linearGradient><inkscape:path-effect
       effect="spiro"
       id="path-effect22"
       is_visible="true"
       lpeversion="1" /><inkscape:path-effect
       effect="bspline"
       id="path-effect11"
       is_visible="true"
       lpeversion="1.3"
       weight="33.333333"
       steps="2"
       helper_size="0"
       apply_no_weight="true"
       apply_with_weight="true"
       only_selected="false"
       uniform="false" /><linearGradient
       id="swatch9"
       inkscape:swatch="solid"><stop
         style="stop-color:#f43f5e;stop-opacity:1;"
         offset="0"
         id="stop9" /></linearGradient><linearGradient
       id="swatch2"
       inkscape:swatch="solid"><stop
         style="stop-color:#06b6d4;stop-opacity:1;"
         offset="0"
         id="stop2" /></linearGradient><rect
       x="428.06472"
       y="139.34873"
       width="1211.332"
       height="352.4703"
       id="rect1" /><linearGradient
       inkscape:collect="always"
       xlink:href="#swatch2"
       id="linearGradient5"
       x1="466.48047"
       y1="248.38024"
       x2="1612.4805"
       y2="248.38024"
       gradientUnits="userSpaceOnUse" /><inkscape:path-effect
       effect="bspline"
       id="path-effect11-4"
       is_visible="true"
       lpeversion="1.3"
       weight="33.333333"
       steps="2"
       helper_size="0"
       apply_no_weight="true"
       apply_with_weight="true"
       only_selected="false"
       uniform="false" /><inkscape:path-effect
       effect="bspline"
       id="path-effect11-4-5"
       is_visible="true"
       lpeversion="1.3"
       weight="33.333333"
       steps="2"
       helper_size="0"
       apply_no_weight="true"
       apply_with_weight="true"
       only_selected="false"
       uniform="false" /><inkscape:path-effect
       effect="bspline"
       id="path-effect11-4-2"
       is_visible="true"
       lpeversion="1.3"
       weight="33.333333"
       steps="2"
       helper_size="0"
       apply_no_weight="true"
       apply_with_weight="true"
       only_selected="false"
       uniform="false" /><inkscape:path-effect
       effect="bspline"
       id="path-effect11-4-2-2"
       is_visible="true"
       lpeversion="1.3"
       weight="33.333333"
       steps="2"
       helper_size="0"
       apply_no_weight="true"
       apply_with_weight="true"
       only_selected="false"
       uniform="false" /><inkscape:path-effect
       effect="bspline"
       id="path-effect11-4-2-7"
       is_visible="true"
       lpeversion="1.3"
       weight="33.333333"
       steps="2"
       helper_size="0"
       apply_no_weight="true"
       apply_with_weight="true"
       only_selected="false"
       uniform="false" /><inkscape:path-effect
       effect="bspline"
       id="path-effect11-4-2-79"
       is_visible="true"
       lpeversion="1.3"
       weight="33.333333"
       steps="2"
       helper_size="0"
       apply_no_weight="true"
       apply_with_weight="true"
       only_selected="false"
       uniform="false" /><inkscape:path-effect
       effect="bspline"
       id="path-effect11-4-8"
       is_visible="true"
       lpeversion="1.3"
       weight="33.333333"
       steps="2"
       helper_size="0"
       apply_no_weight="true"
       apply_with_weight="true"
       only_selected="false"
       uniform="false" /><inkscape:path-effect
       effect="bspline"
       id="path-effect11-4-9"
       is_visible="true"
       lpeversion="1.3"
       weight="33.333333"
       steps="2"
       helper_size="0"
       apply_no_weight="true"
       apply_with_weight="true"
       only_selected="false"
       uniform="false" /><inkscape:path-effect
       effect="bspline"
       id="path-effect11-4-50"
       is_visible="true"
       lpeversion="1.3"
       weight="33.333333"
       steps="2"
       helper_size="0"
       apply_no_weight="true"
       apply_with_weight="true"
       only_selected="false"
       uniform="false" /><inkscape:path-effect
       effect="bspline"
       id="path-effect11-4-4"
       is_visible="true"
       lpeversion="1.3"
       weight="33.333333"
       steps="2"
       helper_size="0"
       apply_no_weight="true"
       apply_with_weight="true"
       only_selected="false"
       uniform="false" /><inkscape:path-effect
       effect="bspline"
       id="path-effect11-4-0"
       is_visible="true"
       lpeversion="1.3"
       weight="33.333333"
       steps="2"
       helper_size="0"
       apply_no_weight="true"
       apply_with_weight="true"
       only_selected="false"
       uniform="false" /><inkscape:path-effect
       effect="bspline"
       id="path-effect11-4-93"
       is_visible="true"
       lpeversion="1.3"
       weight="33.333333"
       steps="2"
       helper_size="0"
       apply_no_weight="true"
       apply_with_weight="true"
       only_selected="false"
       uniform="false" /><inkscape:path-effect
       effect="bspline"
       id="path-effect11-4-1"
       is_visible="true"
       lpeversion="1.3"
       weight="33.333333"
       steps="2"
       helper_size="0"
       apply_no_weight="true"
       apply_with_weight="true"
       only_selected="false"
       uniform="false" /><rect
       x="428.06473"
       y="139.34872"
       width="1211.332"
       height="352.47031"
       id="rect1-5" /><linearGradient
       inkscape:collect="always"
       xlink:href="#linearGradient28"
       id="linearGradient29"
       x1="-1.8713023e-05"
       y1="84.666664"
       x2="338.66653"
       y2="84.666664"
       gradientUnits="userSpaceOnUse"
       gradientTransform="translate(380.99663,-267.09114)" /><linearGradient
       inkscape:collect="always"
       xlink:href="#linearGradient7"
       id="linearGradient6"
       gradientUnits="userSpaceOnUse"
       x1="61.57365"
       y1="-198.4935"
       x2="354.30188"
       y2="-198.4935"
       gradientTransform="translate(-15.307068,-42.253821)" /><pattern
       patternUnits="userSpaceOnUse"
       width="10.271094"
       height="210.27109"
       patternTransform="translate(-84.402757,-693.60469)"
       preserveAspectRatio="xMidYMid"
       id="pattern21"
       inkscape:label="pattern21"><path
         style="fill:#0ea5e9;fill-opacity:0;stroke:#0ea5e9;stroke-width:10.2711;stroke-linecap:round;stroke-dasharray:none;paint-order:stroke fill markers"
         d="M 5.1355472,5.1355472 V 205.13555"
         id="path21" /></pattern><pattern
       patternUnits="userSpaceOnUse"
       width="3.0000001"
       height="225"
       patternTransform="translate(-91.758115,-703.36316)"
       preserveAspectRatio="xMidYMid"
       id="pattern23"
       inkscape:label="pattern23"><rect
         style="fill:#0ea5e9;fill-opacity:1;stroke:none;stroke-width:2.99999;stroke-linecap:round;stroke-linejoin:round;stroke-dasharray:none;stroke-opacity:1;paint-order:stroke fill markers"
         width="3"
         height="225"
         x="0"
         y="-4.2632564e-14"
         id="rect22" /></pattern><linearGradient
       inkscape:collect="always"
       xlink:href="#linearGradient7"
       id="linearGradient230"
       gradientUnits="userSpaceOnUse"
       gradientTransform="translate(-11.765848,48.028274)"
       x1="61.57365"
       y1="-198.4935"
       x2="354.30188"
       y2="-198.4935" /></defs><g
     inkscape:label="MASTER"
     inkscape:groupmode="layer"
     id="layer1"><rect
       style="fill:url(#linearGradient29);fill-rule:nonzero;stroke:none;stroke-width:0;stroke-linecap:butt;stroke-linejoin:miter;stroke-miterlimit:4;stroke-dasharray:none;stroke-opacity:1;paint-order:stroke fill markers"
       id="rect25"
       width="338.66663"
       height="169.33331"
       x="380.99661"
       y="-267.09113"
       inkscape:label="gradient_bg" /><path
       d="m 73.024985,-162.22265 v 34.32968 H 59.895041 v -34.32968 H 50.53541 v -10.81484 h 31.849205 v 10.81484 z m 53.478875,34.32968 h -15.3789 l -6.58151,-17.26406 h -4.36562 v 17.26406 H 86.320285 v -45.14452 h 23.580975 q 7.80521,0 12.10468,3.67109 4.33255,3.63802 4.33255,9.62421 0,3.90261 -1.5875,6.91224 -1.5875,2.97656 -6.41614,5.2586 z m -26.32603,-26.92135 h 5.92005 q 2.61276,0 4.20026,-1.09141 1.5875,-1.0914 1.5875,-3.20807 0,-4.33255 -5.32474,-4.33255 h -6.38307 z m 66.84033,16.13958 v 10.78177 h -33.96587 v -45.14452 h 33.96587 v 10.41796 h -20.37291 v 6.54844 h 16.4703 V -146.05 h -16.4703 v 7.37526 z m 44.08617,10.78177 h -11.27786 l -12.36926,-19.94297 q -2.38125,-3.83646 -4.79557,-9.32656 1.09141,4.36562 1.09141,7.40833 v 21.8612 h -11.24479 v -45.14452 h 13.09687 l 10.51718,16.53645 q 3.14193,4.92786 4.7625,8.6651 -1.05834,-5.78776 -1.05834,-11.8401 v -13.36145 h 11.27786 z m 7.87136,0 v -45.14452 h 17.46249 q 11.37708,0 17.03254,6.74687 5.65547,6.74687 5.65547,15.61041 0,10.12031 -6.08541,16.47031 -6.05234,6.31693 -15.7427,6.31693 z m 13.85754,-10.3849 h 3.60495 q 3.43958,0 5.78776,-3.34036 2.38125,-3.34036 2.38125,-9.09505 0,-4.92787 -2.11667,-8.49974 -2.08359,-3.57187 -6.05234,-3.57187 h -3.60495 z m 46.0044,-34.75962 v 45.14452 h -13.85755 v -45.14452 z m 36.08253,28.24426 h -14.71744 v 16.90026 h -13.49374 v -45.14452 h 32.64295 v 10.74869 h -19.14921 v 7.34219 h 14.71744 z m 46.30206,-28.24426 -14.12213,26.02837 v 19.11615 h -13.46067 v -19.11615 l -15.18046,-26.02837 h 15.18046 l 7.90442,14.84973 7.5737,-14.84973 z"
       id="text229-1"
       style="font-size:67.7333px;line-height:1;font-family:'Franklin Gothic Heavy';-inkscape-font-specification:'Franklin Gothic Heavy, ';letter-spacing:0px;word-spacing:0px;fill:none;fill-opacity:0;stroke:url(#linearGradient230);stroke-width:2.64583;paint-order:stroke fill markers"
       inkscape:label="text58"
       aria-label="TRENDIFY" /><g
       inkscape:groupmode="layer"
       id="layer4"
       inkscape:label="text"
       transform="translate(3.3273827e-6,-51.385815)"><text
         xml:space="preserve"
         style="font-style:normal;font-variant:normal;font-weight:normal;font-stretch:normal;font-size:67.7333px;line-height:1;font-family:'Franklin Gothic Heavy';-inkscape-font-specification:'Franklin Gothic Heavy, ';letter-spacing:0px;word-spacing:0px;writing-mode:lr-tb;direction:ltr;fill:none;fill-opacity:0;fill-rule:nonzero;stroke:url(#linearGradient6);stroke-width:2.64583;stroke-linecap:butt;stroke-linejoin:miter;stroke-miterlimit:4;stroke-dasharray:none;stroke-opacity:1;paint-order:stroke fill markers"
         x="46.994186"
         y="-218.17506"
         id="text58"
         inkscape:label="text58"><tspan
           sodipodi:role="line"
           id="tspan58"
           style="stroke:url(#linearGradient6);stroke-width:2.64583;stroke-dasharray:none"
           x="46.994186"
           y="-218.17506">TRENDIFY</tspan></text></g><g
       inkscape:groupmode="layer"
       id="layer2"
       inkscape:label="logo"
       transform="translate(-173.69571,-210.52988)"
       sodipodi:insensitive="true"><rect
         style="fill:#f43f5e;fill-opacity:1;stroke:none;stroke-width:2.64591;stroke-linecap:butt;stroke-dasharray:none;stroke-opacity:1;paint-order:stroke fill markers"
         id="rect21"
         width="66.145828"
         height="66.145828"
         x="145.90915"
         y="23.794331" /><g
         inkscape:groupmode="layer"
         id="layer3"
         inkscape:label="vertical_lines"
         transform="translate(171.56936,211.34771)"
         sodipodi:insensitive="true"><path
           style="fill:none;fill-opacity:1;stroke:#0ea5e9;stroke-width:0.661458;stroke-linecap:round;stroke-linejoin:round;stroke-dasharray:none;stroke-opacity:1;paint-order:stroke fill markers"
           d="m 152.92289,26.876653 v 58.14668"
           id="path46"
           transform="translate(-173.69571,-210.52988)"
           sodipodi:insensitive="true" /><path
           style="fill:none;fill-opacity:1;stroke:#0ea5e9;stroke-width:0.661458;stroke-linecap:round;stroke-linejoin:round;stroke-dasharray:none;stroke-opacity:1;paint-order:stroke fill markers"
           d="m -14.830458,-183.65323 v 58.14668"
           id="path46-2"
           sodipodi:insensitive="true" /><path
           style="fill:none;fill-opacity:1;stroke:#0ea5e9;stroke-width:0.661458;stroke-linecap:round;stroke-linejoin:round;stroke-dasharray:none;stroke-opacity:1;paint-order:stroke fill markers"
           d="m -8.8880967,-183.65323 v 58.14668"
           id="path46-5"
           sodipodi:insensitive="true" /><path
           style="fill:none;fill-opacity:1;stroke:#0ea5e9;stroke-width:0.661458;stroke-linecap:round;stroke-linejoin:round;stroke-dasharray:none;stroke-opacity:1;paint-order:stroke fill markers"
           d="m -2.945735,-183.65323 v 58.14668"
           id="path46-2-7"
           sodipodi:insensitive="true" /><path
           style="fill:none;fill-opacity:1;stroke:#0ea5e9;stroke-width:0.661458;stroke-linecap:round;stroke-linejoin:round;stroke-dasharray:none;stroke-opacity:1;paint-order:stroke fill markers"
           d="m 2.9966267,-183.65323 v 58.14668"
           id="path46-27"
           sodipodi:insensitive="true" /><path
           style="fill:none;fill-opacity:1;stroke:#0ea5e9;stroke-width:0.661458;stroke-linecap:round;stroke-linejoin:round;stroke-dasharray:none;stroke-opacity:1;paint-order:stroke fill markers"
           d="m 8.9389883,-183.65323 v 58.14668"
           id="path46-2-9"
           sodipodi:insensitive="true" /><path
           style="fill:none;fill-opacity:1;stroke:#0ea5e9;stroke-width:0.661458;stroke-linecap:round;stroke-linejoin:round;stroke-dasharray:none;stroke-opacity:1;paint-order:stroke fill markers"
           d="m 14.88135,-183.65323 v 58.14668"
           id="path46-5-5"
           sodipodi:insensitive="true" /><path
           style="fill:none;fill-opacity:1;stroke:#0ea5e9;stroke-width:0.661458;stroke-linecap:round;stroke-linejoin:round;stroke-dasharray:none;stroke-opacity:1;paint-order:stroke fill markers"
           d="m 20.823712,-183.65323 v 58.14668"
           id="path46-2-7-4"
           sodipodi:insensitive="true" /><path
           style="fill:none;fill-opacity:1;stroke:#0ea5e9;stroke-width:0.661458;stroke-linecap:round;stroke-linejoin:round;stroke-dasharray:none;stroke-opacity:1;paint-order:stroke fill markers"
           d="m 26.766073,-183.65323 v 58.14668"
           id="path46-5-5-3"
           sodipodi:insensitive="true" /><path
           style="fill:none;fill-opacity:1;stroke:#0ea5e9;stroke-width:0.661458;stroke-linecap:round;stroke-linejoin:round;stroke-dasharray:none;stroke-opacity:1;paint-order:stroke fill markers"
           d="m 32.708435,-183.65323 v 58.14668"
           id="path46-2-7-4-4"
           sodipodi:insensitive="true" /></g><g
         inkscape:groupmode="layer"
         id="g56"
         inkscape:label="horizontal_lines"
         transform="rotate(-90,200.41331,-136.1628)"
         sodipodi:insensitive="true"><path
           style="fill:none;fill-opacity:1;stroke:#0ea5e9;stroke-width:0.661458;stroke-linecap:round;stroke-linejoin:round;stroke-dasharray:none;stroke-opacity:1;paint-order:stroke fill markers"
           d="m -21.590647,-185.77958 v 58.14668"
           id="path47"
           sodipodi:insensitive="true" /><path
           style="fill:none;fill-opacity:1;stroke:#0ea5e9;stroke-width:0.661458;stroke-linecap:round;stroke-linejoin:round;stroke-dasharray:none;stroke-opacity:1;paint-order:stroke fill markers"
           d="m -15.707353,-185.77958 v 58.14668"
           id="path48"
           sodipodi:insensitive="true" /><path
           style="fill:none;fill-opacity:1;stroke:#0ea5e9;stroke-width:0.661458;stroke-linecap:round;stroke-linejoin:round;stroke-dasharray:none;stroke-opacity:1;paint-order:stroke fill markers"
           d="m -9.8240588,-185.77958 v 58.14668"
           id="path49"
           sodipodi:insensitive="true" /><path
           style="fill:none;fill-opacity:1;stroke:#0ea5e9;stroke-width:0.661458;stroke-linecap:round;stroke-linejoin:round;stroke-dasharray:none;stroke-opacity:1;paint-order:stroke fill markers"
           d="m -3.9407647,-185.77958 v 58.14668"
           id="path50"
           sodipodi:insensitive="true" /><path
           style="fill:none;fill-opacity:1;stroke:#0ea5e9;stroke-width:0.661458;stroke-linecap:round;stroke-linejoin:round;stroke-dasharray:none;stroke-opacity:1;paint-order:stroke fill markers"
           d="m 1.9425294,-185.77958 v 58.14668"
           id="path51"
           sodipodi:insensitive="true" /><path
           style="fill:none;fill-opacity:1;stroke:#0ea5e9;stroke-width:0.661458;stroke-linecap:round;stroke-linejoin:round;stroke-dasharray:none;stroke-opacity:1;paint-order:stroke fill markers"
           d="m 7.8258236,-185.77958 v 58.14668"
           id="path52"
           sodipodi:insensitive="true" /><path
           style="fill:none;fill-opacity:1;stroke:#0ea5e9;stroke-width:0.661458;stroke-linecap:round;stroke-linejoin:round;stroke-dasharray:none;stroke-opacity:1;paint-order:stroke fill markers"
           d="m 13.709118,-185.77958 v 58.14668"
           id="path53"
           sodipodi:insensitive="true" /><path
           style="fill:none;fill-opacity:1;stroke:#0ea5e9;stroke-width:0.661458;stroke-linecap:round;stroke-linejoin:round;stroke-dasharray:none;stroke-opacity:1;paint-order:stroke fill markers"
           d="m 19.592412,-185.77958 v 58.14668"
           id="path54"
           sodipodi:insensitive="true" /><path
           style="fill:none;fill-opacity:1;stroke:#0ea5e9;stroke-width:0.661458;stroke-linecap:round;stroke-linejoin:round;stroke-dasharray:none;stroke-opacity:1;paint-order:stroke fill markers"
           d="m 25.475706,-185.77958 v 58.14668"
           id="path55"
           sodipodi:insensitive="true" /><path
           style="fill:none;fill-opacity:1;stroke:#0ea5e9;stroke-width:0.661458;stroke-linecap:round;stroke-linejoin:round;stroke-dasharray:none;stroke-opacity:1;paint-order:stroke fill markers"
           d="m 31.359,-185.77957 v 58.14668"
           id="path56"
           sodipodi:insensitive="true" /></g><g
         inkscape:groupmode="layer"
         id="layer7"
         inkscape:label="T"
         transform="translate(173.69571,210.52988)"
         style="display:inline"
         sodipodi:insensitive="true"><path
           style="fill:none;fill-opacity:1;fill-rule:nonzero;stroke:#0ea5e9;stroke-width:0.661458;stroke-linecap:round;stroke-linejoin:round;stroke-dasharray:none;stroke-opacity:1;paint-order:stroke fill markers"
           d="m 168.62363,74.074569 c 0,-9.805492 0,-19.610778 -1.98083,-24.513625 -1.98083,-4.902846 -5.94233,-4.902846 -9.9039,-4.902846"
           id="path59"
           inkscape:path-effect="#path-effect60"
           inkscape:original-d="m 168.62363,74.074569 c 0,-9.805492 0,-19.610778 0,-29.416471 -3.96166,0 -7.92316,0 -11.88473,0"
           sodipodi:nodetypes="ccc"
           transform="translate(-173.69571,-210.52988)" /><path
           style="fill:none;fill-opacity:1;stroke:#0ea5e9;stroke-width:0.661458;stroke-linecap:round;stroke-linejoin:round;stroke-dasharray:none;stroke-opacity:1;paint-order:stroke fill markers"
           d="m 174.56599,74.061735 c 0,-9.801406 0,-19.602522 1.9647,-24.50308 1.96471,-4.900557 5.86803,-4.900557 9.82367,-4.900557"
           id="path60"
           inkscape:path-effect="#path-effect61"
           inkscape:original-d="m 174.56599,74.061735 c 0,-9.801406 0,-19.602522 0,-29.403637 3.92941,0 7.83273,0 11.78837,0"
           sodipodi:nodetypes="ccc"
           transform="translate(-173.69571,-210.52988)" /><path
           style="fill:none;fill-opacity:1;fill-rule:nonzero;stroke:#0ea5e9;stroke-width:3;stroke-linecap:round;stroke-linejoin:round;stroke-dasharray:none;stroke-opacity:1;paint-order:stroke fill markers"
           d="m -59.606397,-628.22484 c 0.01916,-0.025 0.286506,-0.38158 0.594095,-0.7923 3.603973,-4.81239 7.608871,-8.99229 12.238999,-12.77381 1.007381,-0.82275 3.293474,-2.56723 3.761171,-2.87009 l 0.100176,-0.0649 v 8.2733 8.27331 h -8.364641 c -6.686012,0 -8.35765,-0.009 -8.3298,-0.0455 z"
           id="path62"
           transform="scale(0.2645833)" /><path
           style="fill:#0ea5e9;fill-opacity:1;fill-rule:nonzero;stroke:#0ea5e9;stroke-width:3;stroke-linecap:round;stroke-linejoin:round;stroke-dasharray:none;stroke-opacity:1;paint-order:stroke fill markers"
           d="m -59.524458,-628.31052 c 0.374386,-0.5752 2.405271,-3.14999 3.443523,-4.36577 3.027051,-3.54462 6.305362,-6.71114 9.978281,-9.638 0.813819,-0.64851 3.122595,-2.39142 3.16784,-2.39142 0.01177,0 0.02141,3.72079 0.02141,8.26843 v 8.26843 h -8.35163 -8.35163 z"
           id="path63"
           transform="scale(0.2645833)" /><path
           style="fill:#0ea5e9;fill-opacity:1;fill-rule:nonzero;stroke:#0ea5e9;stroke-width:3;stroke-linecap:round;stroke-linejoin:round;stroke-dasharray:none;stroke-opacity:1;paint-order:stroke fill markers"
           d="m -40.324837,-637.34304 0.01302,-9.17418 1.081851,-0.69078 1.08185,-0.69079 8.847993,-4.8e-4 8.847993,-4.8e-4 v 9.86545 9.86545 h -9.942864 -9.942864 z"
           id="path64"
           transform="scale(0.2645833)" /><path
           style="fill:#0ea5e9;fill-opacity:1;fill-rule:nonzero;stroke:#0ea5e9;stroke-width:3;stroke-linecap:round;stroke-linejoin:round;stroke-dasharray:none;stroke-opacity:1;paint-order:stroke fill markers"
           d="m -17.876294,-638.0343 v -9.86545 h 9.9427226 9.9427226 v 9.86545 9.86545 h -9.9427226 -9.9427226 z"
           id="path65"
           transform="scale(0.2645833)" /><path
           style="fill:#0ea5e9;fill-opacity:1;fill-rule:nonzero;stroke:#0ea5e9;stroke-width:3;stroke-linecap:round;stroke-linejoin:round;stroke-dasharray:none;stroke-opacity:1;paint-order:stroke fill markers"
           d="m -24.622645,-606.59623 c -1.312464,-3.83612 -3.169234,-7.45721 -5.250178,-10.23895 -2.56873,-3.43379 -5.959572,-6.20163 -9.700939,-7.91858 l -0.762356,-0.34985 -7.28e-4,-0.27046 -7.28e-4,-0.27046 h 9.942722 9.942723 v 9.83969 9.83968 h -1.977301 -1.977302 z"
           id="path66"
           transform="scale(0.2645833)" /><path
           style="fill:#0ea5e9;fill-opacity:1;fill-rule:nonzero;stroke:#0ea5e9;stroke-width:3;stroke-linecap:round;stroke-linejoin:round;stroke-dasharray:none;stroke-opacity:1;paint-order:stroke fill markers"
           d="m -17.876294,-615.80484 v -9.83969 h 9.9427226 9.9427226 v 9.83969 9.83968 h -9.9427226 -9.9427226 z"
           id="path67"
           transform="scale(0.2645833)" /><path
           style="fill:#0ea5e9;fill-opacity:1;fill-rule:nonzero;stroke:#0ea5e9;stroke-width:3;stroke-linecap:round;stroke-linejoin:round;stroke-dasharray:none;stroke-opacity:1;paint-order:stroke fill markers"
           d="m 4.5849861,-615.80484 v -9.83969 h 9.9427229 9.942722 v 0.22188 0.22187 l -0.502287,0.22108 c -0.717094,0.31562 -2.048812,1.01097 -2.758401,1.44028 -5.424575,3.28196 -9.362774,8.41096 -12.0897999,15.74542 -0.2212335,0.59502 -0.455731,1.24993 -0.5211055,1.45535 l -0.1188629,0.37349 H 6.5324804 4.5849861 Z"
           id="path68"
           transform="scale(0.2645833)" /><path
           style="fill:#0ea5e9;fill-opacity:1;fill-rule:nonzero;stroke:#0ea5e9;stroke-width:3;stroke-linecap:round;stroke-linejoin:round;stroke-dasharray:none;stroke-opacity:1;paint-order:stroke fill markers"
           d="m 4.5849861,-638.0343 v -9.86545 h 9.9427229 9.942722 v 9.86545 9.86545 H 14.527709 4.5849861 Z"
           id="path69"
           transform="scale(0.2645833)" /><path
           style="fill:#0ea5e9;fill-opacity:1;fill-rule:nonzero;stroke:#0ea5e9;stroke-width:3;stroke-linecap:round;stroke-linejoin:round;stroke-dasharray:none;stroke-opacity:1;paint-order:stroke fill markers"
           d="m 27.046266,-638.0343 v -9.86545 h 9.942723 9.942722 v 9.86545 9.86545 h -9.942722 -9.942723 z"
           id="path70"
           transform="scale(0.2645833)" /><path
           style="fill:#0ea5e9;fill-opacity:1;fill-rule:nonzero;stroke:#0ea5e9;stroke-width:3;stroke-linecap:round;stroke-linejoin:round;stroke-dasharray:none;stroke-opacity:1;paint-order:stroke fill markers"
           d="m -17.876294,-593.54963 v -9.83969 h 9.9427226 9.9427226 v 9.83969 9.83969 h -9.9427226 -9.9427226 z"
           id="path71"
           transform="scale(0.2645833)" /><path
           style="fill:#0ea5e9;fill-opacity:1;fill-rule:nonzero;stroke:#0ea5e9;stroke-width:3;stroke-linecap:round;stroke-linejoin:round;stroke-dasharray:none;stroke-opacity:1;paint-order:stroke fill markers"
           d="m 4.5927049,-595.52014 -0.00772,-7.86918 h 1.5489725 c 1.4515046,0 1.5472155,0.006 1.5210502,0.0901 -0.015357,0.0496 -0.155618,0.5654 -0.3116906,1.14625 -1.0165162,3.78314 -1.9832818,8.87884 -2.7220166,14.3474 -0.011483,0.085 -0.024351,-3.38658 -0.028597,-7.71462 z"
           id="path72"
           transform="scale(0.2645833)" /><path
           style="fill:#0ea5e9;fill-opacity:1;fill-rule:nonzero;stroke:#0ea5e9;stroke-width:3;stroke-linecap:round;stroke-linejoin:round;stroke-dasharray:none;stroke-opacity:1;paint-order:stroke fill markers"
           d="m -20.625563,-588.48812 c -0.697631,-5.14269 -1.694559,-10.22905 -2.766624,-14.1154 -0.111353,-0.40367 -0.20246,-0.74561 -0.20246,-0.75987 0,-0.0143 0.707066,-0.0259 1.571259,-0.0259 h 1.571259 v 7.98509 c 0,4.3918 -0.0064,7.98509 -0.01421,7.98509 -0.0078,0 -0.07947,-0.48104 -0.159223,-1.06898 z"
           id="path73"
           transform="scale(0.2645833)" /><path
           style="fill:#0ea5e9;fill-opacity:1;fill-rule:nonzero;stroke:#0ea5e9;stroke-width:3;stroke-linecap:round;stroke-linejoin:round;stroke-dasharray:none;stroke-opacity:1;paint-order:stroke fill markers"
           d="m -17.876294,-571.34593 v -9.83969 h 9.9427226 9.9427226 v 9.83969 9.83968 h -9.9427226 -9.9427226 z"
           id="path74"
           transform="scale(0.2645833)" /><path
           style="fill:#0ea5e9;fill-opacity:1;fill-rule:nonzero;stroke:#0ea5e9;stroke-width:3;stroke-linecap:round;stroke-linejoin:round;stroke-dasharray:none;stroke-opacity:1;paint-order:stroke fill markers"
           d="m -17.876294,-549.09072 v -9.83969 h 9.9427226 9.9427226 v 9.83969 9.83969 h -9.9427226 -9.9427226 z"
           id="path75"
           transform="scale(0.2645833)" /><path
           style="fill:#0ea5e9;fill-opacity:1;fill-rule:nonzero;stroke:#0ea5e9;stroke-width:3;stroke-linecap:round;stroke-linejoin:round;stroke-dasharray:none;stroke-opacity:1;paint-order:stroke fill markers"
           d="m -17.876294,-526.83551 v -9.83969 h 9.9427226 9.9427226 v 9.83969 9.83969 h -9.9427226 -9.9427226 z"
           id="path76"
           transform="scale(0.2645833)" /></g><g
         inkscape:groupmode="layer"
         id="layer9"
         inkscape:label="R"
         transform="translate(173.69571,210.52988)"
         sodipodi:insensitive="true"><path
           style="fill:none;fill-opacity:1;fill-rule:nonzero;stroke:#0ea5e9;stroke-width:0.661458;stroke-linecap:round;stroke-linejoin:round;stroke-dasharray:none;stroke-opacity:1;paint-order:stroke fill markers"
           d="m 12.755,-148.2219 c 0,-1.9611 0,-3.92216 0.990412,-4.90272 0.990413,-0.98057 2.97116,-0.98057 4.95195,-0.98057"
           id="path81"
           inkscape:path-effect="#path-effect81"
           inkscape:original-d="m 12.755,-148.2219 c 0,-1.9611 0,-3.92216 0,-5.88329 1.980825,0 3.961572,0 5.942362,0"
           sodipodi:nodetypes="ccc" /><path
           style="fill:none;fill-opacity:1;fill-rule:nonzero;stroke:#0ea5e9;stroke-width:0.661458;stroke-linecap:round;stroke-linejoin:round;stroke-dasharray:none;stroke-opacity:1;paint-order:stroke fill markers"
           d="m 12.755,-148.2219 c 0,-3.9222 0,-7.84432 0.990413,-9.80545 0.990412,-1.96114 2.971159,-1.96114 4.951949,-1.96114"
           id="path82"
           inkscape:path-effect="#path-effect83"
           inkscape:original-d="m 12.755,-148.2219 c 0,-3.9222 0,-7.84432 0,-11.76659 1.980825,0 3.961572,0 5.942362,0"
           sodipodi:nodetypes="ccc" /><path
           style="fill:#0ea5e9;fill-opacity:1;fill-rule:nonzero;stroke:#0ea5e9;stroke-width:3;stroke-linecap:round;stroke-linejoin:round;stroke-dasharray:none;stroke-opacity:1;paint-order:stroke fill markers"
           d="m 27.097783,-526.86127 v -9.78817 h 9.891206 9.891206 v 9.78817 9.78818 h -9.891206 -9.891206 z"
           id="path77"
           transform="scale(0.2645833)" /><path
           style="fill:#0ea5e9;fill-opacity:1;fill-rule:nonzero;stroke:#0ea5e9;stroke-width:3;stroke-linecap:round;stroke-linejoin:round;stroke-dasharray:none;stroke-opacity:1;paint-order:stroke fill markers"
           d="m 27.097783,-549.06496 v -9.83969 h 9.891206 9.891206 v 9.83969 9.83969 h -9.891206 -9.891206 z"
           id="path78"
           transform="scale(0.2645833)" /><path
           style="fill:#0ea5e9;fill-opacity:1;fill-rule:nonzero;stroke:#0ea5e9;stroke-width:3;stroke-linecap:round;stroke-linejoin:round;stroke-dasharray:none;stroke-opacity:1;paint-order:stroke fill markers"
           d="m 27.097783,-571.32018 v -9.83968 h 9.891206 9.891206 v 9.83968 9.83969 h -9.891206 -9.891206 z"
           id="path79"
           transform="scale(0.2645833)" /><path
           style="fill:#0ea5e9;fill-opacity:1;fill-rule:nonzero;stroke:#0ea5e9;stroke-width:3;stroke-linecap:round;stroke-linejoin:round;stroke-dasharray:none;stroke-opacity:1;paint-order:stroke fill markers"
           d="m 27.097783,-593.57539 v -9.83969 h 9.891206 9.891206 v 9.83969 9.83969 h -9.891206 -9.891206 z"
           id="path80"
           transform="scale(0.2645833)" /><path
           style="fill:#0ea5e9;fill-opacity:1;fill-rule:nonzero;stroke:#0ea5e9;stroke-width:3;stroke-linecap:round;stroke-linejoin:round;stroke-dasharray:none;stroke-opacity:1;paint-order:stroke fill markers"
           d="m 49.731882,-578.12038 c 0.0044,-0.0779 0.01954,-0.3677 0.03368,-0.64396 0.0391,-0.76411 0.13937,-2.41481 0.147276,-2.42455 0.0015,-0.002 0.723128,-0.002 1.603706,0 l 1.601053,0.003 -0.179028,0.10804 c -1.25552,0.75774 -2.266277,1.71009 -3.064627,2.88754 -0.0692,0.10207 -0.131269,0.19137 -0.137926,0.19845 -0.0076,0.008 -0.0091,-0.0402 -0.0041,-0.12879 z"
           id="path83"
           transform="scale(0.2645833)" /><path
           style="fill:#0ea5e9;fill-opacity:1;fill-rule:nonzero;stroke:#0ea5e9;stroke-width:3;stroke-linecap:round;stroke-linejoin:round;stroke-dasharray:none;stroke-opacity:1;paint-order:stroke fill markers"
           d="m 50.119565,-583.73892 c 0.0033,-0.0195 0.02086,-0.1919 0.03896,-0.38316 0.235282,-2.48606 0.626842,-5.07031 1.06804,-7.04894 0.627202,-2.8128 1.423111,-4.95748 2.447891,-6.59614 0.991164,-1.58492 2.285702,-2.82019 3.865591,-3.6886 0.232256,-0.12767 0.777191,-0.39165 1.034435,-0.50111 1.763482,-0.7504 3.851862,-1.17695 6.632775,-1.35475 0.998148,-0.0638 2.566424,-0.10957 3.763939,-0.10981 l 0.434672,-9e-5 v 9.85901 9.85901 h -9.64618 -9.646179 z"
           id="path85"
           transform="scale(0.2645833)" /></g><g
         inkscape:groupmode="layer"
         id="layer8"
         inkscape:label="fancy_lines"
         transform="translate(173.69571,210.52988)"
         sodipodi:insensitive="true"><path
           style="fill:none;fill-opacity:1;stroke:#0ea5e9;stroke-width:0.661458;stroke-linecap:round;stroke-linejoin:round;stroke-dasharray:none;stroke-opacity:1;paint-order:stroke fill markers"
           d="m 150.79654,85.841163 c 0,-17.649881 0,-35.299426 8.91315,-44.12454 8.91315,-8.825113 26.73874,-8.825113 44.5647,-8.825113"
           id="path57"
           inkscape:path-effect="#path-effect57"
           inkscape:original-d="m 150.79654,85.841163 c 0,-17.649881 0,-35.299426 0,-52.949653 17.8263,0 35.65189,0 53.47785,0"
           sodipodi:nodetypes="ccc"
           transform="translate(-173.69571,-210.52988)" /><path
           style="display:inline;fill:none;fill-opacity:1;stroke:#0ea5e9;stroke-width:0.661458;stroke-linecap:round;stroke-linejoin:round;stroke-dasharray:none;stroke-opacity:1;paint-order:stroke fill markers"
           d="m 150.79654,85.841163 c 0,-17.649881 0,-35.299426 8.91315,-44.12454 8.91315,-8.825113 26.73874,-8.825113 44.5647,-8.825113"
           id="path58"
           inkscape:path-effect="#path-effect59"
           inkscape:original-d="m 150.79654,85.841163 c 0,-17.649881 0,-35.299426 0,-52.949653 17.8263,0 35.65189,0 53.47785,0"
           sodipodi:nodetypes="ccc"
           transform="rotate(180,90.687605,-45.898605)" /></g></g><g
       inkscape:groupmode="layer"
       id="g133"
       inkscape:label="logo_transparent"
       transform="translate(-248.10976,-210.46373)"><path
         id="rect85"
         style="fill:#f43f5e;fill-opacity:1;stroke:none;stroke-width:2.64591;stroke-linecap:butt;stroke-dasharray:none;stroke-opacity:1;paint-order:stroke fill markers"
         d="M 145.90929 23.794527 L 145.90929 89.940352 L 212.05512 89.940352 L 212.05512 23.794527 L 145.90929 23.794527 z M 156.73912 27.363301 A 0.33072901 0.33072901 0 0 1 157.06933 27.69558 L 157.06933 32.560916 L 162.35066 32.560916 L 162.35066 27.69558 A 0.33072901 0.33072901 0 0 1 162.68088 27.363301 A 0.33072901 0.33072901 0 0 1 163.01264 27.69558 L 163.01264 32.560916 L 168.2919 32.560916 L 168.2919 27.69558 A 0.33072901 0.33072901 0 0 1 168.62418 27.363301 A 0.33072901 0.33072901 0 0 1 168.95388 27.69558 L 168.95388 32.560916 L 174.23521 32.560916 L 174.23521 27.69558 A 0.33072901 0.33072901 0 0 1 174.56542 27.363301 A 0.33072901 0.33072901 0 0 1 174.8977 27.69558 L 174.8977 32.560916 L 180.17696 32.560916 L 180.17696 27.69558 A 0.33072901 0.33072901 0 0 1 180.50873 27.363301 A 0.33072901 0.33072901 0 0 1 180.83894 27.69558 L 180.83894 32.560916 L 186.12027 32.560916 L 186.12027 27.69558 A 0.33072901 0.33072901 0 0 1 186.44997 27.363301 A 0.33072901 0.33072901 0 0 1 186.78224 27.69558 L 186.78224 32.560916 L 192.06151 32.560916 L 192.06151 27.69558 A 0.33072901 0.33072901 0 0 1 192.39379 27.363301 A 0.33072901 0.33072901 0 0 1 192.72348 27.69558 L 192.72348 32.560916 L 198.00481 32.560916 L 198.00481 27.69558 A 0.33072901 0.33072901 0 0 1 198.33503 27.363301 A 0.33072901 0.33072901 0 0 1 198.66679 27.69558 L 198.66679 32.560916 L 202.1875 32.560916 C 202.77368 32.560478 203.36006 32.560409 203.94657 32.560399 L 203.94657 27.69558 A 0.33072901 0.33072901 0 0 1 204.27833 27.363301 A 0.33072901 0.33072901 0 0 1 204.60854 27.69558 L 204.60854 32.560916 L 208.94316 32.560916 A 0.33072901 0.33072901 0 0 1 209.27338 32.891128 A 0.33072901 0.33072901 0 0 1 208.94316 33.223408 L 204.60854 33.223408 L 204.60854 38.44376 L 208.94316 38.44376 A 0.33072901 0.33072901 0 0 1 209.27338 38.773972 A 0.33072901 0.33072901 0 0 1 208.94316 39.105735 L 204.60854 39.105735 L 204.60854 44.326604 L 208.94316 44.326604 A 0.33072901 0.33072901 0 0 1 209.27338 44.658884 A 0.33072901 0.33072901 0 0 1 208.94316 44.988579 L 204.60854 44.988579 L 204.60854 50.211516 L 208.94316 50.211516 A 0.33072901 0.33072901 0 0 1 209.27338 50.541728 A 0.33072901 0.33072901 0 0 1 208.94316 50.871424 L 204.60854 50.871424 L 204.60854 56.09436 L 208.94316 56.09436 A 0.33072901 0.33072901 0 0 1 209.27338 56.424573 A 0.33072901 0.33072901 0 0 1 208.94316 56.756335 L 204.60854 56.756335 L 204.60854 61.977204 L 208.94316 61.977204 A 0.33072901 0.33072901 0 0 1 209.27338 62.3069 A 0.33072901 0.33072901 0 0 1 208.94316 62.63918 L 204.60854 62.63918 L 204.60854 67.860049 L 208.94316 67.860049 A 0.33072901 0.33072901 0 0 1 209.27338 68.191811 A 0.33072901 0.33072901 0 0 1 208.94316 68.522024 L 204.60854 68.522024 L 204.60854 73.744443 L 208.94316 73.744443 A 0.33072901 0.33072901 0 0 1 209.27338 74.074656 A 0.33072901 0.33072901 0 0 1 208.94316 74.404868 L 204.60854 74.404868 L 204.60854 79.627288 L 208.94316 79.627288 A 0.33072901 0.33072901 0 0 1 209.27338 79.9575 A 0.33072901 0.33072901 0 0 1 208.94316 80.287712 L 204.60854 80.287712 L 204.60854 85.510132 L 208.94316 85.510132 A 0.33072901 0.33072901 0 0 1 209.27338 85.840344 A 0.33072901 0.33072901 0 0 1 208.94316 86.172624 L 150.79685 86.172624 A 0.33072901 0.33072901 0 0 1 150.6444 86.134383 A 0.33072901 0.33072901 0 0 1 150.632 86.128182 A 0.33072901 0.33072901 0 0 0 150.63148 86.127665 A 0.33072901 0.33072901 0 0 1 150.59686 86.104928 A 0.33072901 0.33072901 0 0 1 150.59583 86.103894 A 0.33072901 0.33072901 0 0 0 150.59531 86.103894 A 0.33072901 0.33072901 0 0 1 150.58446 86.094076 A 0.33072901 0.33072901 0 0 1 150.56482 86.077022 A 0.33072901 0.33072901 0 0 0 150.5643 86.076506 A 0.33072901 0.33072901 0 0 1 150.56275 86.075989 A 0.33072901 0.33072901 0 0 0 150.56224 86.075472 A 0.33072901 0.33072901 0 0 1 150.46509 85.841895 C 150.46509 85.163963 150.4651 84.48602 150.4656 83.808427 L 150.4656 27.694547 A 0.33072901 0.33072901 0 0 1 150.79737 27.364851 A 0.33072901 0.33072901 0 0 1 151.12758 27.694547 L 151.12758 32.560916 L 156.40736 32.560916 L 156.40736 27.69558 A 0.33072901 0.33072901 0 0 1 156.73912 27.363301 z M 151.12758 33.223408 L 151.12758 38.44376 L 156.40736 38.44376 L 156.40736 33.223408 L 151.12758 33.223408 z M 157.06933 33.223408 L 157.06933 38.44376 L 162.35066 38.44376 L 162.35066 33.223408 L 157.06933 33.223408 z M 163.01264 33.223408 L 163.01264 38.44376 L 163.40641 38.44376 C 164.90455 37.536169 166.54027 36.769806 168.2919 36.121938 L 168.2919 33.223408 L 163.01264 33.223408 z M 168.95388 33.223408 L 168.95388 35.884227 C 170.62118 35.304918 172.38763 34.827327 174.23521 34.433153 L 174.23521 33.223408 L 168.95388 33.223408 z M 174.8977 33.223408 L 174.8977 34.29621 C 176.1017 34.054592 177.33854 33.846741 178.60342 33.667825 C 179.12323 33.594296 179.64787 33.525725 180.17696 33.461636 L 180.17696 33.223408 L 174.8977 33.223408 z M 180.83894 33.223408 L 180.83894 33.384121 C 181.346 33.326677 181.857 33.273118 182.37166 33.223408 L 180.83894 33.223408 z M 202.21334 33.223408 C 201.02845 33.224294 199.84553 33.226732 198.66679 33.233226 L 198.66679 38.44376 L 203.93365 38.44376 C 203.94348 36.710403 203.94394 34.967419 203.94399 33.223408 L 202.21334 33.223408 z M 198.00481 33.23736 C 196.23021 33.249602 194.46675 33.271925 192.72348 33.313841 L 192.72348 38.44376 L 198.00481 38.44376 L 198.00481 33.23736 z M 192.06151 33.330895 C 190.27593 33.379123 188.51289 33.449134 186.78224 33.550003 L 186.78224 38.44376 L 192.06151 38.44376 L 192.06151 33.330895 z M 186.12027 33.589793 C 184.31927 33.703761 182.55507 33.853495 180.83894 34.049197 L 180.83894 38.44376 L 186.12027 38.44376 L 186.12027 33.589793 z M 180.17696 34.127228 C 179.67879 34.188011 179.18483 34.252819 178.6954 34.322048 C 177.39544 34.505927 176.12786 34.720803 174.8977 34.971104 L 174.8977 38.44376 L 180.17696 38.44376 L 180.17696 34.127228 z M 174.23521 35.110114 C 172.37959 35.5118 170.61317 35.998466 168.95388 36.587543 L 168.95388 38.44376 L 174.23521 38.44376 L 174.23521 35.110114 z M 168.2919 36.829905 C 167.04035 37.303479 165.85347 37.838914 164.73915 38.44376 L 168.2919 38.44376 L 168.2919 36.829905 z M 151.12758 39.105735 L 151.12758 44.326604 L 156.40736 44.326604 L 156.40736 39.105735 L 151.12758 39.105735 z M 157.06933 39.105735 L 157.06933 44.326604 L 157.09414 44.326604 C 157.80795 43.301619 158.5993 42.350788 159.47642 41.482334 C 160.354 40.613425 161.31486 39.829846 162.35066 39.122788 L 162.35066 39.105735 L 157.06933 39.105735 z M 186.78224 39.105735 L 186.78224 44.326604 L 192.06151 44.326604 L 192.06151 39.105735 L 186.78224 39.105735 z M 192.72348 39.105735 L 192.72348 44.326604 L 198.00481 44.326604 L 198.00481 39.105735 L 192.72348 39.105735 z M 198.66679 39.105735 L 198.66679 44.326604 L 203.85149 44.326604 C 203.89389 42.603298 203.91653 40.860023 203.929 39.105735 L 198.66679 39.105735 z M 151.12758 44.988579 L 151.12758 50.211516 L 154.06228 50.211516 C 154.71661 48.47701 155.49072 46.85701 156.40736 45.373569 L 156.40736 44.988579 L 151.12758 44.988579 z M 185.8531 44.988579 C 184.06452 44.993512 182.33356 45.04502 180.83894 45.570456 L 180.83894 50.211516 L 186.12027 50.211516 L 186.12027 44.988579 L 185.8531 44.988579 z M 186.78224 44.988579 L 186.78224 50.211516 L 192.06151 50.211516 L 192.06151 44.988579 L 186.78224 44.988579 z M 192.72348 44.988579 L 192.72348 50.211516 L 198.00481 50.211516 L 198.00481 44.988579 L 192.72348 44.988579 z M 198.66679 44.988579 L 198.66679 50.211516 L 203.61274 50.211516 C 203.71471 48.49935 203.78505 46.755127 203.83392 44.988579 L 198.66679 44.988579 z M 157.4445 44.989096 C 157.31685 45.178955 157.19191 45.371788 157.06933 45.566839 L 157.06933 50.211516 L 162.35066 50.211516 L 162.35066 45.591127 C 162.34189 45.587987 162.3331 45.584933 162.32431 45.581825 C 160.86352 45.065289 159.17885 44.99779 157.4445 44.989096 z M 180.17696 45.84124 C 178.81373 46.485401 177.66709 47.612926 176.83763 49.681832 C 176.76941 49.852001 176.70374 50.028639 176.64023 50.211516 L 180.17696 50.211516 L 180.17696 45.84124 z M 163.01264 45.866045 L 163.01264 50.211516 L 166.53387 50.211516 C 166.47025 50.02993 166.40425 49.854499 166.33595 49.68545 C 165.51047 47.642255 164.36843 46.515191 163.01264 45.866045 z M 156.40736 46.688217 C 155.79484 47.793123 155.25276 48.970211 154.77335 50.211516 L 156.40736 50.211516 L 156.40736 46.688217 z M 151.12758 50.871424 L 151.12758 56.09436 L 152.35748 56.09436 C 152.75513 54.267304 153.23683 52.520401 153.82095 50.871424 L 151.12758 50.871424 z M 154.52634 50.871424 C 153.93192 52.512506 153.44097 54.259396 153.03547 56.09436 L 156.40736 56.09436 L 156.40736 50.871424 L 154.52634 50.871424 z M 157.06933 50.871424 L 157.06933 56.09436 L 162.35066 56.09436 L 162.35066 50.871424 L 157.06933 50.871424 z M 163.01264 50.871424 L 163.01264 56.09436 L 167.71519 56.09436 C 167.49083 54.091949 167.17954 52.320189 166.74729 50.871424 L 163.01264 50.871424 z M 176.42887 50.871424 C 176.00033 52.320334 175.69161 54.0921 175.46924 56.09436 L 180.17696 56.09436 L 180.17696 50.871424 L 176.42887 50.871424 z M 186.78224 50.871424 L 186.78224 53.265076 C 186.8861 52.933773 187.00618 52.628922 187.14501 52.35402 C 187.48969 51.671511 187.96293 51.194691 188.50462 50.871424 L 186.78224 50.871424 z M 192.72348 50.871424 L 192.72348 56.09436 L 198.00481 56.09436 L 198.00481 50.871424 L 192.72348 50.871424 z M 198.66679 50.871424 L 198.66679 56.09436 L 203.10786 56.09436 C 203.3054 54.397198 203.4567 52.652512 203.57192 50.871424 L 198.66679 50.871424 z M 203.94657 54.469653 C 203.89342 55.015482 203.83604 55.557124 203.77397 56.09436 L 203.94657 56.09436 L 203.94657 54.469653 z M 168.28053 55.108374 C 168.28053 55.108374 168.28008 55.109572 168.27898 55.111991 C 168.28331 55.144706 168.28763 55.177334 168.2919 55.210177 L 168.2919 55.111475 C 168.28529 55.10964 168.28129 55.108585 168.28053 55.108374 z M 151.12758 56.756335 L 151.12758 61.977204 L 151.37562 61.977204 C 151.44027 61.454184 151.50974 60.935594 151.58388 60.421744 C 151.7644 59.170655 151.97427 57.947259 152.21795 56.756335 L 151.12758 56.756335 z M 152.89388 56.756335 C 152.64097 57.974632 152.42385 59.229979 152.2381 60.517345 C 152.1685 60.999624 152.10341 61.486331 152.04225 61.977204 L 156.40736 61.977204 L 156.40736 56.756335 L 152.89388 56.756335 z M 157.06933 56.756335 L 157.06933 61.977204 L 162.35066 61.977204 L 162.35066 56.756335 L 157.06933 56.756335 z M 163.01264 56.756335 L 163.01264 61.977204 L 168.13326 61.977204 C 168.05811 60.129883 167.94781 58.374488 167.78547 56.756335 L 163.01264 56.756335 z M 175.39948 56.756335 C 175.23858 58.374559 175.12923 60.129963 175.0548 61.977204 L 180.17696 61.977204 L 180.17696 56.756335 L 175.39948 56.756335 z M 191.67394 56.756335 C 190.93505 56.762656 190.22199 56.786665 189.59241 56.875708 C 188.76042 56.993388 188.09105 57.228306 187.67418 57.641036 C 187.25731 58.053756 187.02137 58.712773 186.90265 59.535493 C 186.84695 59.921573 186.81968 60.343462 186.80343 60.779862 C 186.80066 61.186983 186.78853 61.575049 186.7838 61.977204 L 192.06151 61.977204 L 192.06151 56.756335 L 191.67394 56.756335 z M 192.72348 56.756335 L 192.72348 61.977204 L 198.00481 61.977204 L 198.00481 56.756335 L 192.72348 56.756335 z M 198.66679 56.756335 L 198.66679 61.977204 L 202.17665 61.977204 C 202.42963 60.758582 202.64662 59.502894 202.83243 58.215161 C 202.90198 57.733221 202.96716 57.246854 203.02828 56.756335 L 198.66679 56.756335 z M 203.69491 56.756335 C 203.63032 57.278825 203.56123 57.796904 203.48717 58.310245 C 203.30657 59.561881 203.09642 60.78579 202.85258 61.977204 L 203.94657 61.977204 L 203.94657 56.756335 L 203.69491 56.756335 z M 151.12758 62.63918 L 151.12758 64.228746 C 151.17975 63.694875 151.23584 63.164816 151.29656 62.63918 L 151.12758 62.63918 z M 151.96215 62.63918 C 151.76473 64.335674 151.61426 66.079669 151.49913 67.860049 L 156.40736 67.860049 L 156.40736 62.63918 L 151.96215 62.63918 z M 157.06933 62.63918 L 157.06933 67.860049 L 162.35066 67.860049 L 162.35066 62.63918 L 157.06933 62.63918 z M 163.01264 62.63918 L 163.01264 67.860049 L 168.27072 67.860049 C 168.25236 66.071699 168.21886 64.320407 168.15858 62.63918 L 163.01264 62.63918 z M 175.02948 62.63918 C 174.96977 64.320477 174.93703 66.07178 174.91889 67.860049 L 180.17696 67.860049 L 180.17696 62.63918 L 175.02948 62.63918 z M 186.78224 62.63918 L 186.78224 67.860049 L 192.06151 67.860049 L 192.06151 62.63918 L 186.78224 62.63918 z M 192.72348 62.63918 L 192.72348 67.860049 L 198.00481 67.860049 L 198.00481 62.63918 L 192.72348 62.63918 z M 198.66679 62.63918 L 198.66679 67.860049 L 200.54471 67.860049 C 201.13878 66.219575 201.62973 64.473381 202.03506 62.63918 L 198.66679 62.63918 z M 202.71305 62.63918 C 202.31546 64.465483 201.83403 66.211691 201.25009 67.860049 L 203.94657 67.860049 L 203.94657 62.63918 L 202.71305 62.63918 z M 151.45779 68.522024 C 151.3559 70.234022 151.28542 71.978075 151.23662 73.744443 L 156.40736 73.744443 L 156.40736 68.522024 L 151.45779 68.522024 z M 157.06933 68.522024 L 157.06933 73.744443 L 162.35066 73.744443 L 162.35066 68.522024 L 157.06933 68.522024 z M 163.01264 68.522024 L 163.01264 73.744443 L 168.2919 73.744443 L 168.2919 72.074261 C 168.2903 70.882224 168.2861 69.695122 168.2764 68.522024 L 163.01264 68.522024 z M 174.91269 68.522024 C 174.90309 69.695857 174.89927 70.883624 174.8977 72.076328 L 174.8977 73.744443 L 180.17696 73.744443 L 180.17696 68.522024 L 174.91269 68.522024 z M 186.78224 68.522024 L 186.78224 73.744443 L 192.06151 73.744443 L 192.06151 68.522024 L 186.78224 68.522024 z M 192.72348 68.522024 L 192.72348 73.744443 L 197.62551 73.744443 C 197.75455 73.55254 197.88096 73.357708 198.00481 73.1605 L 198.00481 68.522024 L 192.72348 68.522024 z M 198.66679 68.522024 L 198.66679 72.038605 C 199.27779 70.935678 199.81875 69.760788 200.29718 68.522024 L 198.66679 68.522024 z M 201.00773 68.522024 C 200.35435 70.253588 199.58158 71.870867 198.66679 73.352219 L 198.66679 73.744443 L 203.94657 73.744443 L 203.94657 68.522024 L 201.00773 68.522024 z M 151.21956 74.404868 C 151.17719 76.128687 151.15397 77.872483 151.14153 79.627288 L 156.40736 79.627288 L 156.40736 74.404868 L 151.21956 74.404868 z M 157.06933 74.404868 L 157.06933 79.627288 L 162.35066 79.627288 L 162.35066 74.404868 L 157.06933 74.404868 z M 163.01264 74.404868 L 163.01264 79.627288 L 168.2919 79.627288 L 168.2919 74.404868 L 163.01264 74.404868 z M 168.95388 74.404868 L 168.95388 79.627288 L 174.23521 79.627288 L 174.23521 74.404868 L 168.95388 74.404868 z M 174.8977 74.404868 L 174.8977 79.627288 L 180.17696 79.627288 L 180.17696 74.404868 L 174.8977 74.404868 z M 180.83894 74.404868 L 180.83894 79.627288 L 186.12027 79.627288 L 186.12027 74.404868 L 180.83894 74.404868 z M 186.78224 74.404868 L 186.78224 79.627288 L 191.47601 79.627288 C 191.6739 79.505376 191.86892 79.381164 192.06151 79.254184 L 192.06151 74.404868 L 186.78224 74.404868 z M 192.72348 74.404868 L 192.72348 78.799948 C 193.585 78.184843 194.38805 77.513588 195.12747 76.781467 C 195.86582 76.050405 196.5425 75.2565 197.16301 74.404868 L 192.72348 74.404868 z M 197.97639 74.404868 C 197.26245 75.430048 196.47137 76.381059 195.59411 77.249655 C 194.7176 78.117512 193.75782 78.90023 192.72348 79.606617 L 192.72348 79.627288 L 198.00481 79.627288 L 198.00481 74.404868 L 197.97639 74.404868 z M 198.66679 74.404868 L 198.66679 79.627288 L 203.94657 79.627288 L 203.94657 74.404868 L 198.66679 74.404868 z M 151.1374 80.287712 C 151.13073 81.466455 151.12847 82.649853 151.12758 83.834782 L 151.12758 85.510132 C 152.89143 85.510092 154.65426 85.509499 156.40736 85.499797 L 156.40736 80.287712 L 151.1374 80.287712 z M 157.06933 80.287712 L 157.06933 85.495663 C 158.84394 85.483373 160.60741 85.460655 162.35066 85.418665 L 162.35066 80.287712 L 157.06933 80.287712 z M 163.01264 80.287712 L 163.01264 85.401612 C 164.79823 85.353305 166.56127 85.283458 168.2919 85.182504 L 168.2919 80.287712 L 163.01264 80.287712 z M 168.95388 80.287712 L 168.95388 85.142196 C 170.75489 85.028137 172.51909 84.879091 174.23521 84.683309 L 174.23521 80.287712 L 168.95388 80.287712 z M 174.8977 80.287712 L 174.8977 84.604761 C 175.39466 84.5441 175.88739 84.479521 176.37565 84.410458 C 177.67687 84.226399 178.94568 84.0115 180.17696 83.760885 L 180.17696 80.287712 L 174.8977 80.287712 z M 180.83894 80.287712 L 180.83894 83.621875 C 182.69458 83.220068 184.46101 82.733172 186.12027 82.14393 L 186.12027 80.287712 L 180.83894 80.287712 z M 186.78224 80.287712 L 186.78224 81.901051 C 188.03338 81.427494 189.22001 80.892487 190.33397 80.287712 L 186.78224 80.287712 z M 191.66515 80.287712 C 190.16784 81.194918 188.53281 81.961304 186.78224 82.609018 L 186.78224 85.510132 L 192.06151 85.510132 L 192.06151 80.287712 L 191.66515 80.287712 z M 192.72348 80.287712 L 192.72348 85.510132 L 198.00481 85.510132 L 198.00481 80.287712 L 192.72348 80.287712 z M 198.66679 80.287712 L 198.66679 85.510132 L 203.94657 85.510132 L 203.94657 80.287712 L 198.66679 80.287712 z M 186.12027 82.846212 C 184.45301 83.425721 182.68656 83.90349 180.83894 84.297803 L 180.83894 85.510132 L 186.12027 85.510132 L 186.12027 82.846212 z M 180.17696 84.435262 C 178.97178 84.677211 177.73385 84.885058 176.46763 85.064165 C 175.94906 85.137516 175.42551 85.20588 174.8977 85.269837 L 174.8977 85.510132 L 180.17696 85.510132 L 180.17696 84.435262 z M 174.23521 85.347868 C 173.72179 85.406052 173.20457 85.459875 172.68337 85.510132 L 174.23521 85.510132 L 174.23521 85.347868 z "
         inkscape:export-filename="main_logo.svg"
         inkscape:export-xdpi="96"
         inkscape:export-ydpi="96"
         inkscape:label="rect85" /></g><g
       id="g232"><rect
         style="fill:#ffffff;fill-opacity:1;fill-rule:nonzero;stroke:none;stroke-width:0.761998;stroke-linecap:round;stroke-linejoin:round;stroke-dasharray:none;stroke-opacity:1;paint-order:stroke fill markers"
         id="rect224"
         width="63.499992"
         height="63.499992"
         x="-100.98441"
         y="-113.89172"
         inkscape:export-filename="main_logo_white_bg.svg"
         inkscape:export-xdpi="96"
         inkscape:export-ydpi="96" /><use
         x="0"
         y="0"
         xlink:href="#rect85"
         id="use232"
         transform="translate(-248.10976,-138.99587)" /></g></g><g
     inkscape:groupmode="layer"
     id="layer5"
     inkscape:label="gh_social"><use
       x="0"
       y="0"
       xlink:href="#rect25"
       id="use46"
       style="display:inline"
       inkscape:label="bg_gradient"
       transform="translate(-380.99661,267.09113)" /><use
       x="0"
       y="0"
       xlink:href="#text229-1"
       id="use230"
       transform="translate(-36.995492,285.32004)" /><use
       x="0"
       y="0"
       xlink:href="#g232"
       id="use233"
       transform="matrix(1.2999999,0,0,1.2999999,259.19914,160.34506)" /></g><g
     inkscape:groupmode="layer"
     id="layer6"
     inkscape:label="readme_banner"><use
       x="0"
       y="0"
       xlink:href="#rect25"
       id="use47"
       transform="matrix(1,0,0,0.49999995,-32.329992,133.54555)"
       inkscape:label="gradient_bg" /><use
       x="0"
       y="0"
       xlink:href="#text229-1"
       id="use231"
       transform="matrix(0.82008714,0,0,0.82008714,384.23097,166.21614)" /><use
       x="0"
       y="0"
       xlink:href="#g232"
       id="use234"
       transform="translate(456.15878,124.46175)" /></g></svg>
