<?xml version="1.0" encoding="UTF-8" standalone="no"?>
<!-- Created with Inkscape (http://www.inkscape.org/) -->

<svg
   width="1280"
   height="320"
   viewBox="0 0 338.66663 84.666655"
   version="1.1"
   id="svg1"
   xml:space="preserve"
   inkscape:version="1.4.3 (0d15f75, 2025-12-25)"
   sodipodi:docname="logo.svg"
   inkscape:export-filename="hero-logo.png"
   inkscape:export-xdpi="96"
   inkscape:export-ydpi="96"
   xmlns:inkscape="http://www.inkscape.org/namespaces/inkscape"
   xmlns:sodipodi="http://sodipodi.sourceforge.net/DTD/sodipodi-0.dtd"
   xmlns:xlink="http://www.w3.org/1999/xlink"
   xmlns="http://www.w3.org/2000/svg"
   xmlns:svg="http://www.w3.org/2000/svg"><sodipodi:namedview
     id="namedview1"
     pagecolor="#505050"
     bordercolor="#ffffff"
     borderopacity="1"
     inkscape:showpageshadow="0"
     inkscape:pageopacity="0"
     inkscape:pagecheckerboard="1"
     inkscape:deskcolor="#505050"
     inkscape:document-units="px"
     inkscape:zoom="0.70710678"
     inkscape:cx="1002.6774"
     inkscape:cy="144.24978"
     inkscape:window-width="3840"
     inkscape:window-height="2050"
     inkscape:window-x="3828"
     inkscape:window-y="-12"
     inkscape:window-maximized="1"
     inkscape:current-layer="layer1"><inkscape:page
       x="0"
       y="0"
       width="338.66663"
       height="84.666656"
       id="page45"
       margin="5.291666"
       bleed="0"
       inkscape:export-filename="read-me-banner.png"
       inkscape:export-xdpi="96"
       inkscape:export-ydpi="96" /></sodipodi:namedview><defs
     id="defs1"><linearGradient
       id="linearGradient7"
       inkscape:collect="always"
       inkscape:label="main_bg"><stop
         style="stop-color:#ffffff;stop-opacity:1;"
         offset="0.44999999"
         id="stop6" /><stop
         style="stop-color:#f43f5e;stop-opacity:1"
         offset="0.55000001"
         id="stop7" /></linearGradient><linearGradient
       id="linearGradient28"
       inkscape:collect="always"
       inkscape:label="main_bg"><stop
         style="stop-color:#f43f5e;stop-opacity:1"
         offset="0.40000001"
         id="stop28" /><stop
         style="stop-color:#ffffff;stop-opacity:1;"
         offset="0.60000002"
         id="stop29" /></linearGradient><linearGradient
       id="swatch9"
       inkscape:swatch="solid"><stop
         style="stop-color:#f43f5e;stop-opacity:1;"
         offset="0"
         id="stop9" /></linearGradient><linearGradient
       id="swatch2"
       inkscape:swatch="solid"><stop
         style="stop-color:#06b6d4;stop-opacity:1;"
         offset="0"
         id="stop2" /></linearGradient><linearGradient
       inkscape:collect="always"
       xlink:href="#linearGradient28"
       id="linearGradient29"
       x1="-1.8713023e-05"
       y1="84.666664"
       x2="338.66653"
       y2="84.666664"
       gradientUnits="userSpaceOnUse"
       gradientTransform="translate(380.99663,-267.09114)" /><linearGradient
       inkscape:collect="always"
       xlink:href="#linearGradient7"
       id="linearGradient230"
       gradientUnits="userSpaceOnUse"
       gradientTransform="translate(-11.765848,48.028274)"
       x1="61.57365"
       y1="-198.4935"
       x2="354.30188"
       y2="-198.4935" /></defs><g
     inkscape:label="MASTER"
     inkscape:groupmode="layer"
     id="layer1"
     transform="translate(-348.66662)"><rect
       style="fill:url(#linearGradient29);fill-rule:nonzero;stroke:none;stroke-width:0;stroke-linecap:butt;stroke-linejoin:miter;stroke-miterlimit:4;stroke-dasharray:none;stroke-opacity:1;paint-order:stroke fill markers"
       id="rect25"
       width="338.66663"
       height="169.33331"
       x="380.99661"
       y="-267.09113"
       inkscape:label="gradient_bg" /><path
       d="m 73.024985,-162.22265 v 34.32968 H 59.895041 v -34.32968 H 50.53541 v -10.81484 h 31.849205 v 10.81484 z m 53.478875,34.32968 h -15.3789 l -6.58151,-17.26406 h -4.36562 v 17.26406 H 86.320285 v -45.14452 h 23.580975 q 7.80521,0 12.10468,3.67109 4.33255,3.63802 4.33255,9.62421 0,3.90261 -1.5875,6.91224 -1.5875,2.97656 -6.41614,5.2586 z m -26.32603,-26.92135 h 5.92005 q 2.61276,0 4.20026,-1.09141 1.5875,-1.0914 1.5875,-3.20807 0,-4.33255 -5.32474,-4.33255 h -6.38307 z m 66.84033,16.13958 v 10.78177 h -33.96587 v -45.14452 h 33.96587 v 10.41796 h -20.37291 v 6.54844 h 16.4703 V -146.05 h -16.4703 v 7.37526 z m 44.08617,10.78177 h -11.27786 l -12.36926,-19.94297 q -2.38125,-3.83646 -4.79557,-9.32656 1.09141,4.36562 1.09141,7.40833 v 21.8612 h -11.24479 v -45.14452 h 13.09687 l 10.51718,16.53645 q 3.14193,4.92786 4.7625,8.6651 -1.05834,-5.78776 -1.05834,-11.8401 v -13.36145 h 11.27786 z m 7.87136,0 v -45.14452 h 17.46249 q 11.37708,0 17.03254,6.74687 5.65547,6.74687 5.65547,15.61041 0,10.12031 -6.08541,16.47031 -6.05234,6.31693 -15.7427,6.31693 z m 13.85754,-10.3849 h 3.60495 q 3.43958,0 5.78776,-3.34036 2.38125,-3.34036 2.38125,-9.09505 0,-4.92787 -2.11667,-8.49974 -2.08359,-3.57187 -6.05234,-3.57187 h -3.60495 z m 46.0044,-34.75962 v 45.14452 h -13.85755 v -45.14452 z m 36.08253,28.24426 h -14.71744 v 16.90026 h -13.49374 v -45.14452 h 32.64295 v 10.74869 h -19.14921 v 7.34219 h 14.71744 z m 46.30206,-28.24426 -14.12213,26.02837 v 19.11615 h -13.46067 v -19.11615 l -15.18046,-26.02837 h 15.18046 l 7.90442,14.84973 7.5737,-14.84973 z"
       id="text229-1"
       style="font-size:67.7333px;line-height:1;font-family:'Franklin Gothic Heavy';-inkscape-font-specification:'Franklin Gothic Heavy, ';letter-spacing:0px;word-spacing:0px;fill:none;fill-opacity:0;stroke:url(#linearGradient230);stroke-width:2.64583;paint-order:stroke fill markers"
       inkscape:label="text58"
       aria-label="TRENDIFY" /><g
       inkscape:groupmode="layer"
       id="g133"
       inkscape:label="logo_transparent"
       transform="translate(-248.10976,-210.46373)"><path
         id="rect85"
         style="fill:#f43f5e;fill-opacity:1;stroke:none;stroke-width:2.64591;stroke-linecap:butt;stroke-dasharray:none;stroke-opacity:1;paint-order:stroke fill markers"
         d="m 145.90929,23.794527 v 66.145825 h 66.14583 V 23.794527 Z m 10.82983,3.568774 a 0.33072901,0.33072901 0 0 1 0.33021,0.332279 v 4.865336 h 5.28133 V 27.69558 a 0.33072901,0.33072901 0 0 1 0.33022,-0.332279 0.33072901,0.33072901 0 0 1 0.33176,0.332279 v 4.865336 h 5.27926 V 27.69558 a 0.33072901,0.33072901 0 0 1 0.33228,-0.332279 0.33072901,0.33072901 0 0 1 0.3297,0.332279 v 4.865336 h 5.28133 V 27.69558 a 0.33072901,0.33072901 0 0 1 0.33021,-0.332279 0.33072901,0.33072901 0 0 1 0.33228,0.332279 v 4.865336 h 5.27926 V 27.69558 a 0.33072901,0.33072901 0 0 1 0.33177,-0.332279 0.33072901,0.33072901 0 0 1 0.33021,0.332279 v 4.865336 h 5.28133 V 27.69558 a 0.33072901,0.33072901 0 0 1 0.3297,-0.332279 0.33072901,0.33072901 0 0 1 0.33227,0.332279 v 4.865336 h 5.27927 V 27.69558 a 0.33072901,0.33072901 0 0 1 0.33228,-0.332279 0.33072901,0.33072901 0 0 1 0.32969,0.332279 v 4.865336 h 5.28133 V 27.69558 a 0.33072901,0.33072901 0 0 1 0.33022,-0.332279 0.33072901,0.33072901 0 0 1 0.33176,0.332279 v 4.865336 h 3.52071 c 0.58618,-4.38e-4 1.17256,-5.07e-4 1.75907,-5.17e-4 V 27.69558 a 0.33072901,0.33072901 0 0 1 0.33176,-0.332279 0.33072901,0.33072901 0 0 1 0.33021,0.332279 v 4.865336 h 4.33462 a 0.33072901,0.33072901 0 0 1 0.33022,0.330212 0.33072901,0.33072901 0 0 1 -0.33022,0.33228 h -4.33462 v 5.220352 h 4.33462 a 0.33072901,0.33072901 0 0 1 0.33022,0.330212 0.33072901,0.33072901 0 0 1 -0.33022,0.331763 h -4.33462 v 5.220869 h 4.33462 a 0.33072901,0.33072901 0 0 1 0.33022,0.33228 0.33072901,0.33072901 0 0 1 -0.33022,0.329695 h -4.33462 v 5.222937 h 4.33462 a 0.33072901,0.33072901 0 0 1 0.33022,0.330212 0.33072901,0.33072901 0 0 1 -0.33022,0.329696 h -4.33462 v 5.222936 h 4.33462 a 0.33072901,0.33072901 0 0 1 0.33022,0.330213 0.33072901,0.33072901 0 0 1 -0.33022,0.331762 h -4.33462 v 5.220869 h 4.33462 a 0.33072901,0.33072901 0 0 1 0.33022,0.329696 0.33072901,0.33072901 0 0 1 -0.33022,0.33228 h -4.33462 v 5.220869 h 4.33462 a 0.33072901,0.33072901 0 0 1 0.33022,0.331762 0.33072901,0.33072901 0 0 1 -0.33022,0.330213 h -4.33462 v 5.222419 h 4.33462 a 0.33072901,0.33072901 0 0 1 0.33022,0.330213 0.33072901,0.33072901 0 0 1 -0.33022,0.330212 h -4.33462 v 5.22242 h 4.33462 a 0.33072901,0.33072901 0 0 1 0.33022,0.330212 0.33072901,0.33072901 0 0 1 -0.33022,0.330212 h -4.33462 v 5.22242 h 4.33462 a 0.33072901,0.33072901 0 0 1 0.33022,0.330212 0.33072901,0.33072901 0 0 1 -0.33022,0.33228 h -58.14631 a 0.33072901,0.33072901 0 0 1 -0.15245,-0.03824 0.33072901,0.33072901 0 0 1 -0.0124,-0.0062 0.33072901,0.33072901 0 0 0 -5.2e-4,-5.17e-4 0.33072901,0.33072901 0 0 1 -0.0346,-0.02274 0.33072901,0.33072901 0 0 1 -0.001,-0.001 0.33072901,0.33072901 0 0 0 -5.2e-4,0 0.33072901,0.33072901 0 0 1 -0.0109,-0.0098 0.33072901,0.33072901 0 0 1 -0.0196,-0.01705 0.33072901,0.33072901 0 0 0 -5.2e-4,-5.16e-4 0.33072901,0.33072901 0 0 1 -0.002,-5.17e-4 0.33072901,0.33072901 0 0 0 -5.1e-4,-5.17e-4 0.33072901,0.33072901 0 0 1 -0.0971,-0.233577 c 0,-0.677932 1e-5,-1.355875 5.1e-4,-2.033468 v -56.11388 a 0.33072901,0.33072901 0 0 1 0.33177,-0.329696 0.33072901,0.33072901 0 0 1 0.33021,0.329696 v 4.866369 H 156.407 V 27.69558 a 0.33072901,0.33072901 0 0 1 0.33176,-0.332279 z m -5.61154,5.860107 v 5.220352 h 5.27978 v -5.220352 z m 5.94175,0 v 5.220352 h 5.28133 v -5.220352 z m 5.94331,0 v 5.220352 h 0.39377 c 1.49814,-0.907591 3.13386,-1.673954 4.88549,-2.321822 v -2.89853 z m 5.94124,0 v 2.660819 c 1.6673,-0.579309 3.43375,-1.0569 5.28133,-1.451074 v -1.209745 z m 5.94382,0 v 1.072802 c 1.204,-0.241618 2.44084,-0.449469 3.70572,-0.628385 0.51981,-0.07353 1.04445,-0.1421 1.57354,-0.206189 v -0.238228 z m 5.94124,0 v 0.160713 c 0.50706,-0.05744 1.01806,-0.111003 1.53272,-0.160713 z m 21.3744,0 c -1.18489,8.86e-4 -2.36781,0.0033 -3.54655,0.0098 v 5.210534 h 5.26686 c 0.01,-1.733357 0.0103,-3.476341 0.0103,-5.220352 z m -4.20853,0.01395 c -1.7746,0.01224 -3.53806,0.03457 -5.28133,0.07648 v 5.129919 h 5.28133 z m -5.9433,0.09353 c -1.78558,0.04823 -3.54862,0.118239 -5.27927,0.219108 v 4.893757 h 5.27927 z m -5.94124,0.258898 c -1.801,0.113968 -3.5652,0.263702 -5.28133,0.459404 v 4.394563 h 5.28133 z m -5.94331,0.537435 c -0.49817,0.06078 -0.99213,0.125591 -1.48156,0.19482 -1.29996,0.183879 -2.56754,0.398755 -3.7977,0.649056 v 3.472656 h 5.27926 z m -5.94175,0.982886 c -1.85562,0.401686 -3.62204,0.888352 -5.28133,1.477429 v 1.856217 h 5.28133 z m -5.94331,1.719791 c -1.25155,0.473574 -2.43843,1.009009 -3.55275,1.613855 h 3.55275 z m -17.16432,2.27583 v 5.220869 h 5.27978 v -5.220869 z m 5.94175,0 v 5.220869 h 0.0248 c 0.71381,-1.024985 1.50516,-1.975816 2.38228,-2.84427 0.87758,-0.868909 1.83844,-1.652488 2.87424,-2.359546 v -0.01705 z m 29.71291,0 v 5.220869 h 5.27927 v -5.220869 z m 5.94124,0 v 5.220869 h 5.28133 v -5.220869 z m 5.94331,0 v 5.220869 h 5.1847 c 0.0424,-1.723306 0.065,-3.466581 0.0775,-5.220869 z m -47.53921,5.882844 v 5.222937 h 2.9347 c 0.65433,-1.734506 1.42844,-3.354506 2.34508,-4.837947 v -0.38499 z m 34.72552,0 c -1.78858,0.0049 -3.51954,0.05644 -5.01416,0.581877 v 4.64106 h 5.28133 v -5.222937 z m 0.92914,0 v 5.222937 h 5.27927 v -5.222937 z m 5.94124,0 v 5.222937 h 5.28133 v -5.222937 z m 5.94331,0 v 5.222937 h 4.94595 c 0.10197,-1.712166 0.17231,-3.456389 0.22118,-5.222937 z m -41.22229,5.17e-4 c -0.12765,0.189859 -0.25259,0.382692 -0.37517,0.577743 v 4.644677 h 5.28133 V 45.59112 c -0.009,-0.0031 -0.0176,-0.0062 -0.0264,-0.0093 -1.46079,-0.516536 -3.14546,-0.584035 -4.87981,-0.592729 z m 22.73246,0.852144 c -1.36323,0.644161 -2.50987,1.771686 -3.33933,3.840592 -0.0682,0.170169 -0.13389,0.346807 -0.1974,0.529684 h 3.53673 z m -17.16432,0.02481 v 4.345471 h 3.52123 c -0.0636,-0.181586 -0.12962,-0.357017 -0.19792,-0.526066 -0.82548,-2.043195 -1.96752,-3.170259 -3.32331,-3.819405 z m -6.60528,0.822172 c -0.61252,1.104906 -1.1546,2.281994 -1.63401,3.523299 h 1.63401 z m -5.27978,4.183207 v 5.222936 h 1.2299 c 0.39765,-1.827056 0.87935,-3.573959 1.46347,-5.222936 z m 3.39876,0 c -0.59442,1.641082 -1.08537,3.387972 -1.49087,5.222936 h 3.37189 v -5.222936 z m 2.54299,0 v 5.222936 h 5.28133 v -5.222936 z m 5.94331,0 v 5.222936 h 4.70255 c -0.22436,-2.002411 -0.53565,-3.774171 -0.9679,-5.222936 z m 13.41623,0 c -0.42854,1.44891 -0.73726,3.220676 -0.95963,5.222936 h 4.70772 v -5.222936 z m 10.35337,0 v 2.393652 c 0.10386,-0.331303 0.22394,-0.636154 0.36277,-0.911056 0.34468,-0.682509 0.81792,-1.159329 1.35961,-1.482596 z m 5.94124,0 v 5.222936 h 5.28133 v -5.222936 z m 5.94331,0 v 5.222936 h 4.44107 c 0.19754,-1.697162 0.34884,-3.441848 0.46406,-5.222936 z m 5.27978,3.598229 c -0.0532,0.545829 -0.11053,1.087471 -0.1726,1.624707 h 0.1726 z m -35.66604,0.638721 c 0,0 -4.5e-4,0.0012 -0.002,0.0036 0.004,0.03271 0.009,0.06534 0.0129,0.09819 v -0.0987 c -0.007,-0.0018 -0.0106,-0.0029 -0.0114,-0.0031 z m -17.15295,1.647961 v 5.220869 h 0.24804 c 0.0647,-0.52302 0.13412,-1.04161 0.20826,-1.55546 0.18052,-1.251089 0.39039,-2.474485 0.63407,-3.665409 z m 1.7663,0 c -0.25291,1.218297 -0.47003,2.473644 -0.65578,3.76101 -0.0696,0.482279 -0.13469,0.968986 -0.19585,1.459859 h 4.36511 v -5.220869 z m 4.17545,0 v 5.220869 h 5.28133 v -5.220869 z m 5.94331,0 v 5.220869 h 5.12062 c -0.0752,-1.847321 -0.18545,-3.602716 -0.34779,-5.220869 z m 12.38684,0 c -0.1609,1.618224 -0.27025,3.373628 -0.34468,5.220869 h 5.12216 v -5.220869 z m 16.27446,0 c -0.73889,0.0063 -1.45195,0.03033 -2.08153,0.119373 -0.83199,0.11768 -1.50136,0.352598 -1.91823,0.765328 -0.41687,0.41272 -0.65281,1.071737 -0.77153,1.894457 -0.0557,0.38608 -0.083,0.807969 -0.0992,1.244369 -0.003,0.407121 -0.0149,0.795187 -0.0196,1.197342 h 5.27771 v -5.220869 z m 1.04954,0 v 5.220869 h 5.28133 v -5.220869 z m 5.94331,0 v 5.220869 h 3.50986 c 0.25298,-1.218622 0.46997,-2.47431 0.65578,-3.762043 0.0696,-0.48194 0.13473,-0.968307 0.19585,-1.458826 z m 5.02812,0 c -0.0646,0.52249 -0.13368,1.040569 -0.20774,1.55391 -0.1806,1.251636 -0.39075,2.475545 -0.63459,3.666959 h 1.09399 v -5.220869 z m -52.56733,5.882845 v 1.589566 c 0.0522,-0.533871 0.10826,-1.06393 0.16898,-1.589566 z m 0.83457,0 c -0.19742,1.696494 -0.34789,3.440489 -0.46302,5.220869 h 4.90823 V 62.63918 Z m 5.10718,0 v 5.220869 h 5.28133 V 62.63918 Z m 5.94331,0 v 5.220869 h 5.25808 c -0.0184,-1.78835 -0.0519,-3.539642 -0.11214,-5.220869 z m 12.01684,0 c -0.0597,1.681297 -0.0925,3.4326 -0.11059,5.220869 h 5.25807 V 62.63918 Z m 11.75276,0 v 5.220869 h 5.27927 V 62.63918 Z m 5.94124,0 v 5.220869 h 5.28133 V 62.63918 Z m 5.94331,0 v 5.220869 h 1.87792 c 0.59407,-1.640474 1.08502,-3.386668 1.49035,-5.220869 z m 4.04626,0 c -0.39759,1.826303 -0.87902,3.572511 -1.46296,5.220869 h 2.69648 V 62.63918 Z m -51.25526,5.882844 c -0.10189,1.711998 -0.17237,3.456051 -0.22117,5.222419 h 5.17074 v -5.222419 z m 5.61154,0 v 5.222419 h 5.28133 v -5.222419 z m 5.94331,0 v 5.222419 h 5.27926 v -1.670182 c -0.002,-1.192037 -0.006,-2.379139 -0.0155,-3.552237 z m 11.90005,0 c -0.01,1.173833 -0.0134,2.3616 -0.015,3.554304 v 1.668115 h 5.27926 v -5.222419 z m 11.86955,0 v 5.222419 h 5.27927 v -5.222419 z m 5.94124,0 v 5.222419 h 4.90203 c 0.12904,-0.191903 0.25545,-0.386735 0.3793,-0.583943 v -4.638476 z m 5.94331,0 v 3.516581 c 0.611,-1.102927 1.15196,-2.277817 1.63039,-3.516581 z m 2.34094,0 c -0.65338,1.731564 -1.42615,3.348843 -2.34094,4.830195 v 0.392224 h 5.27978 v -5.222419 z m -49.78817,5.882844 c -0.0424,1.723819 -0.0656,3.467615 -0.078,5.22242 h 5.26583 v -5.22242 z m 5.84977,0 v 5.22242 h 5.28133 v -5.22242 z m 5.94331,0 v 5.22242 h 5.27926 v -5.22242 z m 5.94124,0 v 5.22242 h 5.28133 v -5.22242 z m 5.94382,0 v 5.22242 h 5.27926 v -5.22242 z m 5.94124,0 v 5.22242 h 5.28133 v -5.22242 z m 5.9433,0 v 5.22242 h 4.69377 c 0.19789,-0.121912 0.39291,-0.246124 0.5855,-0.373104 v -4.849316 z m 5.94124,0 v 4.39508 c 0.86152,-0.615105 1.66457,-1.28636 2.40399,-2.018481 0.73835,-0.731062 1.41503,-1.524967 2.03554,-2.376599 z m 5.25291,0 c -0.71394,1.02518 -1.50502,1.976191 -2.38228,2.844787 -0.87651,0.867857 -1.83629,1.650575 -2.87063,2.356962 v 0.02067 h 5.28133 v -5.22242 z m 0.6904,0 v 5.22242 h 5.27978 v -5.22242 z M 151.1374,80.28771 c -0.007,1.178743 -0.009,2.362141 -0.01,3.54707 v 1.67535 c 1.76385,-4e-5 3.52668,-6.33e-4 5.27978,-0.01033 v -5.212085 z m 5.93193,0 v 5.207951 c 1.77461,-0.01229 3.53808,-0.03501 5.28133,-0.077 v -5.130953 z m 5.94331,0 v 5.1139 c 1.78559,-0.04831 3.54863,-0.118154 5.27926,-0.219108 V 80.28771 Z m 5.94124,0 v 4.854484 c 1.80101,-0.114059 3.56521,-0.263105 5.28133,-0.458887 V 80.28771 Z m 5.94382,0 v 4.317049 c 0.49696,-0.06066 0.98969,-0.12524 1.47795,-0.194303 1.30122,-0.184059 2.57003,-0.398958 3.80131,-0.649573 V 80.28771 Z m 5.94124,0 v 3.334163 c 1.85564,-0.401807 3.62207,-0.888703 5.28133,-1.477945 V 80.28771 Z m 5.9433,0 v 1.613339 c 1.25114,-0.473557 2.43777,-1.008564 3.55173,-1.613339 z m 4.88291,0 c -1.49731,0.907206 -3.13234,1.673592 -4.88291,2.321306 v 2.901114 h 5.27927 v -5.22242 z m 1.05833,0 v 5.22242 h 5.28133 v -5.22242 z m 5.94331,0 v 5.22242 h 5.27978 v -5.22242 z m -12.54652,2.5585 c -1.66726,0.579509 -3.43371,1.057278 -5.28133,1.451591 v 1.212329 h 5.28133 z m -5.94331,1.58905 c -1.20518,0.241949 -2.44311,0.449796 -3.70933,0.628903 -0.51857,0.07335 -1.04212,0.141715 -1.56993,0.205672 v 0.240295 h 5.27926 z m -5.94175,0.912606 c -0.51342,0.05818 -1.03064,0.112007 -1.55184,0.162264 h 1.55184 z"
         inkscape:export-filename="main_logo.svg"
         inkscape:export-xdpi="96"
         inkscape:export-ydpi="96"
         inkscape:label="rect85" /></g><g
       id="g232"><rect
         style="fill:#ffffff;fill-opacity:1;fill-rule:nonzero;stroke:none;stroke-width:0.761998;stroke-linecap:round;stroke-linejoin:round;stroke-dasharray:none;stroke-opacity:1;paint-order:stroke fill markers"
         id="rect224"
         width="63.499992"
         height="63.499992"
         x="-100.98441"
         y="-113.89172"
         inkscape:export-filename="main_logo_white_bg.svg"
         inkscape:export-xdpi="96"
         inkscape:export-ydpi="96" /><use
         x="0"
         y="0"
         xlink:href="#rect85"
         id="use232"
         transform="translate(-248.10976,-138.99587)" /></g></g><g
     inkscape:groupmode="layer"
     id="layer6"
     inkscape:label="readme_banner"
     transform="translate(-348.66662)"><use
       x="0"
       y="0"
       xlink:href="#rect25"
       id="use47"
       transform="matrix(1,0,0,0.49999995,-32.329992,133.54555)"
       inkscape:label="gradient_bg" /><use
       x="0"
       y="0"
       xlink:href="#text229-1"
       id="use231"
       transform="matrix(0.82008714,0,0,0.82008714,384.23097,166.21614)" /><use
       x="0"
       y="0"
       xlink:href="#g232"
       id="use234"
       transform="translate(456.15878,124.46175)" /></g></svg>
